<?xml version="1.0" standalone="no"?><!DOCTYPE svg PUBLIC "-//W3C//DTD SVG 1.1//EN" "http://www.w3.org/Graphics/SVG/1.1/DTD/svg11.dtd"><svg t="1762477668136" class="icon" viewBox="0 0 1024 1024" version="1.1" xmlns="http://www.w3.org/2000/svg" p-id="3521" xmlns:xlink="http://www.w3.org/1999/xlink" width="200" height="200"><path d="M891.04 236.32l-172.288-172.288-379.04 0 0 137.824-206.752 0 0 758.08 551.328 0 0-137.824 206.752 0 0-585.792zM718.752 112.768l123.552 123.552-123.552 0 0-123.552zM167.424 925.504l0-689.184 310.144 0 0 172.288 172.288 0 0 516.896-482.432 0zM512 250.592l123.552 123.552-123.552 0 0-123.552zM684.288 787.68l0-413.504-172.288-172.288-137.824 0 0-103.392 310.144 0 0 172.288 172.288 0 0 516.896-172.288 0z" fill="#000000" p-id="3522"></path></svg>